<?xml version="1.0" encoding="utf-8"?>
<!-- Generator: Adobe Illustrator 16.0.0, SVG Export Plug-In . SVG Version: 6.00 Build 0)  -->
<!DOCTYPE svg PUBLIC "-//W3C//DTD SVG 1.1//EN" "http://www.w3.org/Graphics/SVG/1.1/DTD/svg11.dtd">
<svg version="1.1" id="Capa_1" xmlns="http://www.w3.org/2000/svg" xmlns:xlink="http://www.w3.org/1999/xlink" x="0px" y="0px"
	 width="498.898px" height="498.898px" viewBox="0 0 498.898 498.898" enable-background="new 0 0 498.898 498.898"
	 xml:space="preserve">
<circle fill="none" stroke="#FFFFFF" stroke-width="12" stroke-miterlimit="10" cx="249.449" cy="249.449" r="239.474"/>
<g>
	<path fill="#FFFFFF" d="M399.908,168.165h-14.046v-9.03c0-2.337-1.372-4.481-3.478-5.455
		c-20.961-10.159-44.351-15.528-67.642-15.528c-22.726,0-44.69,4.851-65.295,14.416c-20.324-9.432-42.891-14.416-65.294-14.416
		c-23.292,0-46.682,5.37-67.624,15.521c-2.123,0.981-3.495,3.125-3.495,5.462v9.03H98.989c-3.315,0-6.015,2.699-6.015,6.016v180.551
		c0,3.315,2.698,6.014,6.015,6.014h300.918c3.317,0,6.017-2.697,6.017-6.014V174.181
		C405.924,170.864,403.225,168.165,399.908,168.165z M243.434,330.525c-18.858-7.748-38.76-11.732-59.178-11.849h-0.012
		c-20.418,0.115-40.318,4.101-59.178,11.849V163.017c18.71-8.505,38.617-12.816,59.184-12.816c20.565,0,40.475,4.311,59.184,12.816
		V330.525z M115.81,344.752c1.707,1.095,3.898,1.254,5.779,0.386c19.417-9.41,41.085-14.386,62.661-14.386
		c21.577,0,43.245,4.976,62.661,14.386l0.222,0.1h0.09c0.613,0.248,1.262,0.395,1.953,0.432l0.272,0.033
		c0.132,0,0.265-0.02,0.414-0.053c0.321-0.019,0.64-0.063,1.005-0.146c0.214-0.057,0.428-0.123,0.697-0.219
		c0.142-0.037,0.281-0.08,0.422-0.146c19.416-9.41,41.084-14.386,62.661-14.386s43.245,4.976,62.678,14.394
		c1.84,0.852,4.056,0.701,5.765-0.394c1.735-1.112,2.771-3.006,2.771-5.065V224.956c3.52-5.315,3.52-12.322,0-17.635v-27.125h8.029
		v168.521H105.007V180.196h8.029v159.49C113.036,341.746,114.073,343.639,115.81,344.752z M296.688,297.725l-1.42,1.432
		l-14.901,2.109l2.095-14.914l1.422-1.424L296.688,297.725z M305.195,289.195l-12.783-12.779l58.848-58.869l12.799,12.804
		L305.195,289.195z M375.428,218.875l-0.066,0.077c-0.076,0.087-0.153,0.176-0.225,0.266l-2.595,2.609l-12.762-12.774l2.853-2.836
		c0.76-0.76,1.771-1.179,2.844-1.179c1.076,0,2.086,0.418,2.844,1.179l6.834,6.834c0.097,0.12,0.197,0.236,0.302,0.345
		C376.889,214.924,376.889,217.317,375.428,218.875z M373.832,195.451c-2.518-1.547-5.439-2.384-8.408-2.384
		c-4.25,0-8.256,1.644-11.281,4.631l-7.125,7.075l-67.285,67.336l-7.184,7.143c-0.925,0.918-1.535,2.135-1.721,3.43l-3.512,24.826
		c-0.244,1.728,0.271,3.472,1.415,4.785c1.145,1.316,2.8,2.072,4.54,2.072c0.285,0,0.568-0.021,0.843-0.062l24.825-3.51
		c1.292-0.184,2.511-0.795,3.428-1.719l71.465-71.477v92.918c-18.841-7.857-38.744-11.841-59.184-11.841
		c-20.44,0-40.344,3.982-59.184,11.841v-167.5c18.709-8.505,38.617-12.816,59.184-12.816s40.474,4.311,59.184,12.816V195.451z"/>
	<path fill="#FFFFFF" d="M138.083,199.257c0,3.317,2.698,6.016,6.017,6.016h80.305c3.316,0,6.016-2.699,6.016-6.016
		s-2.698-6.016-6.016-6.016H144.1C140.781,193.241,138.083,195.94,138.083,199.257z"/>
	<path fill="#FFFFFF" d="M224.403,219.99h-80.307c-3.316,0-6.016,2.699-6.016,6.016c0,3.316,2.698,6.015,6.016,6.015h80.307
		c3.316,0,6.015-2.698,6.015-6.015S227.721,219.99,224.403,219.99z"/>
	<path fill="#FFFFFF" d="M224.403,246.738h-80.305c-3.317,0-6.017,2.697-6.017,6.016c0,3.316,2.698,6.016,6.017,6.016h80.305
		c3.316,0,6.015-2.698,6.015-6.016C230.418,249.436,227.721,246.738,224.403,246.738z"/>
	<path fill="#FFFFFF" d="M184.251,273.486H144.1c-3.317,0-6.017,2.699-6.017,6.016c0,3.317,2.698,6.016,6.017,6.016h40.151
		c3.316,0,6.016-2.698,6.016-6.016C190.267,276.186,187.567,273.486,184.251,273.486z"/>
</g>
</svg>
