<?xml version="1.0" encoding="utf-8"?>
<!-- Generator: Adobe Illustrator 16.0.0, SVG Export Plug-In . SVG Version: 6.00 Build 0)  -->
<!DOCTYPE svg PUBLIC "-//W3C//DTD SVG 1.1//EN" "http://www.w3.org/Graphics/SVG/1.1/DTD/svg11.dtd">
<svg version="1.1" id="Capa_1" xmlns="http://www.w3.org/2000/svg" xmlns:xlink="http://www.w3.org/1999/xlink" x="0px" y="0px"
	 width="498.898px" height="498.898px" viewBox="0 0 498.898 498.898" enable-background="new 0 0 498.898 498.898"
	 xml:space="preserve">
<g>
	<path fill="#FFFFFF" d="M423.025,75.873C376.661,29.509,315.018,3.976,249.449,3.976S122.237,29.509,75.873,75.873
		S3.976,183.881,3.976,249.449s25.533,127.212,71.897,173.576c46.364,46.363,108.008,71.897,173.576,71.897
		s127.212-25.534,173.576-71.897c46.363-46.364,71.897-108.008,71.897-173.576S469.389,122.237,423.025,75.873z M249.449,482.923
		c-128.738,0-233.474-104.736-233.474-233.474c0-128.738,104.735-233.474,233.474-233.474
		c128.737,0,233.474,104.735,233.474,233.474C482.923,378.187,378.187,482.923,249.449,482.923z"/>
	<path fill="#FFFFFF" d="M377.428,341.887l1.59-0.758c7.811-3.726,12.856-11.706,12.856-20.33c0-9.509-6.03-18.034-15.008-21.219
		l-1.332-0.472v-77.064l12.921-6.434c2.105-1.048,3.416-3.16,3.419-5.512c0.005-2.354-1.299-4.469-3.401-5.525l-136.258-65.899
		c-1.709-0.859-3.828-0.858-5.537,0l-136.256,65.9c-2.103,1.056-3.405,3.172-3.401,5.524s1.313,4.465,3.42,5.513l45.598,22.705
		v63.469c0,1.772,0.764,3.46,2.094,4.631c1.587,1.397,44.399,34.218,91.316,34.218c46.94,0,89.729-32.819,91.315-34.218
		c1.332-1.171,2.095-2.857,2.095-4.631v-63.469l20.34-10.127v70.921l-1.332,0.472c-8.978,3.185-15.008,11.71-15.008,21.219
		c0,8.625,5.047,16.604,12.856,20.328l1.59,0.76l-14.137,42.882c-0.626,1.899-0.312,3.922,0.862,5.546
		c1.176,1.625,2.997,2.557,4.997,2.557h32.678c2,0,3.821-0.932,4.996-2.555c1.175-1.626,1.49-3.647,0.864-5.548L377.428,341.887z
		 M330.518,298.874l-0.772,0.601c-8.69,6.761-44.804,28.817-80.298,28.817c-35.496,0-71.608-22.056-80.299-28.814l-0.772-0.602
		v-54.417l78.321,36.51c1.699,0.847,3.802,0.844,5.5,0l78.32-36.51V298.874z M249.447,268.553l-122.462-58.487l122.462-58.975
		l122.461,58.975l-6.249,2.984l-115.46-14.554c-3.28-0.408-6.288,1.915-6.703,5.203c-0.414,3.287,1.915,6.289,5.203,6.703
		l96.923,12.218L249.447,268.553z M359.196,320.799c0-5.606,4.562-10.169,10.169-10.169s10.169,4.563,10.169,10.169
		c0,5.607-4.562,10.17-10.169,10.17S359.196,326.406,359.196,320.799z M361.555,380.53l7.811-23.688l7.811,23.688H361.555z"/>
</g>
</svg>
