<?xml version="1.0" encoding="utf-8"?>
<!-- Generator: Adobe Illustrator 16.0.0, SVG Export Plug-In . SVG Version: 6.00 Build 0)  -->
<!DOCTYPE svg PUBLIC "-//W3C//DTD SVG 1.1//EN" "http://www.w3.org/Graphics/SVG/1.1/DTD/svg11.dtd">
<svg version="1.1" id="Capa_1" xmlns="http://www.w3.org/2000/svg" xmlns:xlink="http://www.w3.org/1999/xlink" x="0px" y="0px"
	 width="498.898px" height="498.898px" viewBox="0 0 498.898 498.898" enable-background="new 0 0 498.898 498.898"
	 xml:space="preserve">
<g>
	<g>
		<path fill="#FFFFFF" d="M249.45,494.923c-65.568,0-127.212-25.534-173.576-71.896C29.509,376.661,3.977,315.018,3.977,249.449
			c0-65.569,25.533-127.212,71.897-173.576C122.237,29.509,183.881,3.976,249.45,3.976c65.568,0,127.212,25.534,173.576,71.897
			c46.361,46.364,71.896,108.008,71.896,173.576c0,65.565-25.535,127.212-71.896,173.576
			C376.662,469.389,315.018,494.923,249.45,494.923z M249.45,15.976c-128.738,0-233.474,104.736-233.474,233.474
			c0,128.737,104.736,233.474,233.474,233.474c128.736,0,233.474-104.733,233.474-233.474S378.188,15.976,249.45,15.976z"/>
	</g>
	<g>
		<g>
			<path fill="#FFFFFF" d="M383.617,304.74l-5.783-0.981c-0.551-1.579-1.189-3.124-1.91-4.616l3.406-4.765
				c2.543-3.57,2.135-8.394-0.961-11.458l-6.445-6.445c-1.686-1.688-3.919-2.616-6.289-2.616c-1.867,0-3.652,0.575-5.148,1.654
				l-4.783,3.406c-1.604-0.777-3.236-1.45-4.879-2.011l-0.959-5.679c-0.723-4.305-4.416-7.429-8.781-7.429h-9.107
				c-4.365,0-8.059,3.124-8.779,7.422l-1.004,5.878c-1.564,0.554-3.104,1.201-4.6,1.937l-4.705-3.388
				c-1.51-1.086-3.301-1.66-5.182-1.66c-2.4,0-4.639,0.935-6.285,2.611l-6.471,6.448c-3.086,3.087-3.49,7.906-0.961,11.46
				l3.455,4.854c-0.714,1.496-1.344,3.047-1.885,4.635l-5.681,0.957c-4.304,0.725-7.428,4.418-7.428,8.782v9.106
				c0,4.367,3.124,8.061,7.423,8.781l5.877,1.002c0.553,1.563,1.2,3.103,1.938,4.601l-3.375,4.694
				c-2.542,3.571-2.135,8.395,0.962,11.46l6.446,6.446c1.686,1.685,3.918,2.612,6.288,2.612c1.866,0,3.649-0.574,5.148-1.652
				l4.854-3.454c1.404,0.669,2.873,1.272,4.391,1.804l0.965,5.782c0.723,4.305,4.415,7.429,8.781,7.429h9.129
				c4.365,0,8.059-3.124,8.78-7.425l0.981-5.782c1.578-0.551,3.122-1.189,4.615-1.911l4.754,3.399c1.51,1.086,3.301,1.66,5.182,1.66
				c2.369,0,4.602-0.929,6.289-2.614l6.445-6.446c3.086-3.086,3.49-7.904,0.961-11.459l-3.409-4.785
				c0.741-1.535,1.382-3.078,1.916-4.612l5.774-0.964c4.305-0.721,7.43-4.414,7.43-8.781v-9.072
				C391.059,309.174,387.951,305.467,383.617,304.74z M368.384,326.22c-0.771,2.983-1.946,5.813-3.498,8.423
				c-1.079,1.836-0.985,4.146,0.246,5.893l4.399,6.197l-4.145,4.146l-6.164-4.388c-1.697-1.223-4.073-1.333-5.92-0.25
				c-2.599,1.547-5.428,2.722-8.391,3.486c-2.105,0.526-3.678,2.246-4,4.346l-1.265,7.477h-5.841l-1.246-7.479
				c-0.359-2.11-1.924-3.814-3.98-4.338c-2.848-0.737-5.623-1.875-8.254-3.385c-1.817-1.036-4.269-0.883-5.848,0.284l-6.241,4.44
				l-4.143-4.143l4.38-6.143c1.229-1.744,1.324-4.063,0.23-5.929c-1.592-2.651-2.779-5.471-3.54-8.416
				c-0.56-2.038-2.255-3.586-4.327-3.944l-7.546-1.284v-5.846l7.416-1.244c2.131-0.363,3.843-1.941,4.362-4.018
				c0.757-3.009,1.911-5.844,3.43-8.429c1.082-1.84,0.973-4.15-0.27-5.874l-4.439-6.239l4.144-4.144l6.143,4.381
				c1.716,1.209,4.069,1.32,5.927,0.229c2.648-1.588,5.469-2.775,8.418-3.539c2.037-0.56,3.584-2.255,3.943-4.326l1.284-7.547h5.845
				l1.244,7.415c0.363,2.131,1.941,3.844,4.018,4.363c3.035,0.764,5.936,1.953,8.627,3.54c1.814,1.063,4.154,0.977,5.902-0.257
				l6.128-4.405l4.138,4.138l-4.385,6.162c-1.251,1.731-1.352,4.051-0.252,5.92c1.546,2.598,2.721,5.428,3.486,8.393
				c0.527,2.105,2.247,3.678,4.346,4l7.477,1.264l-0.021,5.841l-7.479,1.246C370.613,322.596,368.909,324.162,368.384,326.22z"/>
			<path fill="#FFFFFF" d="M336.736,293.219c-13.699,0-24.846,11.146-24.846,24.845s11.146,24.844,24.846,24.844
				s24.844-11.145,24.844-24.844S350.436,293.219,336.736,293.219z M336.736,332.066c-7.723,0-14.004-6.281-14.004-14.003
				s6.281-14.004,14.004-14.004c7.722,0,14.004,6.282,14.004,14.004S344.458,332.066,336.736,332.066z"/>
		</g>
		<path fill="#FFFFFF" d="M222.161,279.002c-5.374,0-10.813-4.182-10.813-12.175v-48.275c0-7.992,5.439-12.174,10.813-12.174
			c2.271,0,4.575,0.666,6.848,1.978l41.807,24.137c4.178,2.412,6.572,6.128,6.572,10.197s-2.395,7.785-6.571,10.197l-41.809,24.138
			C226.736,278.337,224.432,279.002,222.161,279.002z M223.348,218.944v47.493l41.13-23.747L223.348,218.944z"/>
		<g>
			<path fill="#FFFFFF" d="M123.386,318.574c-1.923,0-3.487-1.564-3.487-3.487V170.292c0-1.923,1.564-3.487,3.487-3.487h222.353
				c1.924,0,3.487,1.564,3.487,3.487v83.657h12v-83.657c0-8.54-6.947-15.487-15.487-15.487H123.386
				c-8.54,0-15.487,6.947-15.487,15.487v144.794c0,8.54,6.947,15.487,15.487,15.487h145.796v-12H123.386z"/>
		</g>
	</g>
</g>
</svg>
