<?xml version="1.0" encoding="utf-8"?>
<!-- Generator: Adobe Illustrator 16.0.0, SVG Export Plug-In . SVG Version: 6.00 Build 0)  -->
<!DOCTYPE svg PUBLIC "-//W3C//DTD SVG 1.1//EN" "http://www.w3.org/Graphics/SVG/1.1/DTD/svg11.dtd">
<svg version="1.1" id="Capa_1" xmlns="http://www.w3.org/2000/svg" xmlns:xlink="http://www.w3.org/1999/xlink" x="0px" y="0px"
	 width="498.898px" height="498.898px" viewBox="0 0 498.898 498.898" enable-background="new 0 0 498.898 498.898"
	 xml:space="preserve">
<g>
	<path fill="#FFFFFF" d="M423.025,75.873C376.661,29.509,315.018,3.976,249.449,3.976S122.237,29.509,75.873,75.873
		S3.976,183.881,3.976,249.449s25.533,127.212,71.897,173.576c46.364,46.363,108.008,71.897,173.576,71.897
		s127.212-25.534,173.576-71.897c46.363-46.364,71.897-108.008,71.897-173.576S469.389,122.237,423.025,75.873z M249.449,482.923
		c-128.738,0-233.474-104.736-233.474-233.474c0-128.738,104.735-233.474,233.474-233.474
		c128.737,0,233.474,104.735,233.474,233.474C482.923,378.187,378.187,482.923,249.449,482.923z"/>
	<path fill="#FFFFFF" d="M364.335,131.283H134.564c-9.303,0-16.872,7.569-16.872,16.872v9.785v124.147v22.268
		c0,9.304,7.569,16.873,16.872,16.873h88.863v34.388h-45.373c-3.313,0-6,2.687-6,6s2.687,6,6,6h45.373h52.047h45.371
		c3.313,0,6-2.687,6-6s-2.687-6-6-6h-45.371v-34.388h88.86c9.304,0,16.872-7.569,16.872-16.873v-22.268V157.94v-9.785
		C381.207,138.853,373.639,131.283,364.335,131.283z M129.692,169.94h239.515v100.147H129.692V169.94z M263.475,355.616h-28.047
		v-34.388h28.047V355.616z M369.207,304.355c0,2.687-2.186,4.873-4.872,4.873h-88.86h-52.047h-88.863
		c-2.687,0-4.872-2.187-4.872-4.873v-22.268h239.515V304.355z M129.692,157.94v-9.785c0-2.687,2.186-4.872,4.872-4.872h229.771
		c2.687,0,4.872,2.186,4.872,4.872v9.785H129.692z"/>
	<path fill="#FFFFFF" d="M244.827,301.658h9.245c3.313,0,6-2.687,6-6s-2.687-6-6-6h-9.245c-3.313,0-6,2.687-6,6
		S241.514,301.658,244.827,301.658z"/>
</g>
</svg>
