<?xml version="1.0" encoding="utf-8"?>
<!-- Generator: Adobe Illustrator 16.0.0, SVG Export Plug-In . SVG Version: 6.00 Build 0)  -->
<!DOCTYPE svg PUBLIC "-//W3C//DTD SVG 1.1//EN" "http://www.w3.org/Graphics/SVG/1.1/DTD/svg11.dtd">
<svg version="1.1" id="레이어_1" xmlns="http://www.w3.org/2000/svg" xmlns:xlink="http://www.w3.org/1999/xlink" x="0px"
	 y="0px" width="59.146px" height="52.806px" viewBox="218 221.142 59.146 52.806"
	 enable-background="new 218 221.142 59.146 52.806" xml:space="preserve">
<g>
	<path fill="#FFFFFF" d="M221.404,224.546h1.702v1.702h-1.702V224.546z"/>
	<path fill="#FFFFFF" d="M224.808,224.546h1.702v1.702h-1.702V224.546z"/>
	<path fill="#FFFFFF" d="M228.211,224.546h1.702v1.702h-1.702V224.546z"/>
	<path fill="#FFFFFF" d="M248.023,240.709l-0.45-0.28l-0.449,0.28c-3.485,2.167-7.483,3.572-11.565,4.062l-0.75,0.09v6.939
		c0,8.154,4.887,15.383,12.447,18.416l0.317,0.127l0.317-0.127c7.562-3.035,12.447-10.264,12.447-18.418v-6.938l-0.75-0.09
		C255.507,244.281,251.507,242.876,248.023,240.709z M258.636,251.799c0,7.34-4.331,13.861-11.063,16.707
		c-6.732-2.848-11.063-9.365-11.063-16.707v-5.438c3.893-0.569,7.692-1.92,11.063-3.933c3.37,2.013,7.171,3.363,11.063,3.933
		V251.799z"/>
	<path fill="#FFFFFF" d="M277.146,221.142H218v47.654h20.806c2.387,2.225,5.255,3.98,8.499,5.063l0.269,0.088l0.27-0.088
		c3.243-1.08,6.109-2.838,8.498-5.063h20.806V221.142z M275.444,222.844v5.105h-55.743v-5.105H275.444z M247.573,272.152
		c-8.665-3.014-14.466-11.158-14.466-20.352v-8.547c5.168-0.17,10.253-1.887,14.466-4.889c4.213,3.001,9.298,4.718,14.467,4.889
		v8.545C262.04,260.994,256.239,269.138,247.573,272.152z M257.997,267.094c3.615-4.137,5.744-9.52,5.744-15.295v-10.233h-0.851
		c-5.305,0-10.563-1.753-14.807-4.935l-0.511-0.384l-0.511,0.384c-4.244,3.182-9.503,4.935-14.807,4.935h-0.851v10.233
		c0,5.775,2.129,11.158,5.745,15.295h-17.448v-37.441h55.743v37.441H257.997L257.997,267.094z"/>
	<path fill="#FFFFFF" d="M243.318,250.074v2.711c-0.988,0.352-1.702,1.289-1.702,2.396v6.807c0,1.408,1.146,2.553,2.553,2.553h6.808
		c1.407,0,2.553-1.145,2.553-2.553v-6.807c0-1.107-0.715-2.045-1.702-2.396v-2.711c0-2.345-1.907-4.254-4.254-4.254
		C245.228,245.821,243.318,247.73,243.318,250.074z M251.828,261.988c0,0.469-0.382,0.852-0.851,0.852h-6.808
		c-0.469,0-0.851-0.383-0.851-0.852v-6.807c0-0.469,0.382-0.852,0.851-0.852h6.808c0.469,0,0.851,0.383,0.851,0.852V261.988z
		 M250.126,250.074v2.555h-5.105v-2.555c0-1.406,1.146-2.552,2.553-2.552C248.981,247.522,250.126,248.668,250.126,250.074z"/>
	<path fill="#FFFFFF" d="M247.573,255.181c-1.407,0-2.553,1.145-2.553,2.553c0,1.107,0.714,2.043,1.702,2.395v1.859h1.702v-1.859
		c0.988-0.352,1.702-1.287,1.702-2.395C250.126,256.326,248.981,255.181,247.573,255.181z M247.573,258.584
		c-0.469,0-0.851-0.381-0.851-0.85s0.382-0.852,0.851-0.852s0.851,0.383,0.851,0.852S248.042,258.584,247.573,258.584z"/>
</g>
</svg>
